<svg width="20" height="10" viewBox="0 0 20 10" fill="none" xmlns="http://www.w3.org/2000/svg">
<path d="M3.64648 9H2.57422V1.99219L0.886719 2.63086L0.763672 1.76367L2.70898 0.861328H3.64648V9ZM11.7115 8.14286C11.7115 8.61161 11.3231 9 10.8544 9C10.3856 9 9.99721 8.61161 9.99721 8.14286C9.99721 7.67411 10.3856 7.28571 10.8544 7.28571C11.3231 7.28571 11.7115 7.67411 11.7115 8.14286ZM9.14007 4.71429V4.51339C9.14007 4.48661 9.18025 4.38616 9.20033 4.36607L10.5061 3.06027C10.5262 3.04018 10.6267 3 10.6535 3H11.7115V4.71429H9.14007ZM17.7115 8.14286C17.7115 8.61161 17.3231 9 16.8544 9C16.3856 9 15.9972 8.61161 15.9972 8.14286C15.9972 7.67411 16.3856 7.28571 16.8544 7.28571C17.3231 7.28571 17.7115 7.67411 17.7115 8.14286ZM19.4258 0.857142C19.4258 0.622767 19.2316 0.428571 18.9972 0.428571H12.1401C11.9057 0.428571 11.7115 0.622767 11.7115 0.857142V2.14286H10.6401C10.399 2.14286 10.0776 2.27679 9.91016 2.4442L8.58426 3.77009C8.21596 4.13839 8.28292 4.66741 8.28292 5.14286V7.28571C8.04855 7.28571 7.85435 7.47991 7.85435 7.71429C7.85435 8.20982 8.37667 8.14286 8.7115 8.14286H9.14007C9.14007 9.08705 9.91016 9.85714 10.8544 9.85714C11.7985 9.85714 12.5686 9.08705 12.5686 8.14286H15.1401C15.1401 9.08705 15.9102 9.85714 16.8544 9.85714C17.7985 9.85714 18.5686 9.08705 18.5686 8.14286C18.9035 8.14286 19.4258 8.20982 19.4258 7.71429V0.857142Z" fill="#008FCF"/>
</svg>
