<svg width="12" height="10" viewBox="0 0 12 10" fill="none" xmlns="http://www.w3.org/2000/svg">
<path d="M12 3.46875C11.7991 3.68973 11.5714 3.88393 11.3304 4.05134C10.2121 4.80804 9.08705 5.57143 7.99554 6.36161C7.43304 6.77679 6.73661 7.28571 6.0067 7.28571H6H5.9933C5.26339 7.28571 4.56696 6.77679 4.00446 6.36161C2.91295 5.56473 1.78795 4.80804 0.676339 4.05134C0.428571 3.88393 0.200893 3.68973 0 3.46875V8.78571C0 9.375 0.482143 9.85714 1.07143 9.85714H10.9286C11.5179 9.85714 12 9.375 12 8.78571V3.46875ZM12 1.5C12 0.910714 11.5112 0.428571 10.9286 0.428571H1.07143C0.354911 0.428571 0 0.991071 0 1.64732C0 2.2567 0.676339 3.01339 1.15179 3.33482C2.18973 4.05804 3.24107 4.78125 4.27902 5.51116C4.71429 5.8125 5.45089 6.42857 5.9933 6.42857H6H6.0067C6.54911 6.42857 7.28571 5.8125 7.72098 5.51116C8.75893 4.78125 9.81027 4.05804 10.8549 3.33482C11.4442 2.92634 12 2.25 12 1.5Z" fill="white"/>
</svg>
